<?xml version="1.0" encoding="UTF-8"?>
<svg version="1.1" xmlns="http://www.w3.org/2000/svg" width="512" height="512">
<path d="M0 0 C4.39348756 2.93526364 5.18601578 4.94234407 7.76171875 10.09375 C7.76171875 20.32375 7.76171875 30.55375 7.76171875 41.09375 C84.98171875 41.09375 162.20171875 41.09375 241.76171875 41.09375 C241.76171875 30.86375 241.76171875 20.63375 241.76171875 10.09375 C246.77541738 1.3197774 246.77541738 1.3197774 251.76171875 -0.90625 C257.38895636 -1.65603303 262.10238932 -1.70628383 267.26171875 0.78125 C270.69236777 3.95460035 273.27093028 6.62138458 274.76171875 11.09375 C274.84550503 13.3776017 274.8690179 15.663851 274.859375 17.94921875 C274.85725258 18.94167351 274.85725258 18.94167351 274.85508728 19.95417786 C274.84949871 22.06324828 274.8369484 24.17221177 274.82421875 26.28125 C274.81920227 27.71288909 274.81463962 29.14452985 274.81054688 30.57617188 C274.79953305 34.08206588 274.7822763 37.5878975 274.76171875 41.09375 C275.72319824 41.08042633 275.72319824 41.08042633 276.70410156 41.0668335 C283.45400962 40.97744556 290.20374612 40.91764166 296.95410156 40.87402344 C299.46393681 40.85406835 301.97372655 40.82689447 304.48339844 40.79199219 C327.18824768 40.48443646 346.27526683 41.45704928 363.546875 57.8828125 C364.27777344 58.61242188 365.00867188 59.34203125 365.76171875 60.09375 C366.33792969 60.65835938 366.91414063 61.22296875 367.5078125 61.8046875 C378.66198986 73.68316209 381.21851303 88.79663964 381.1493988 104.40730286 C381.15357706 105.94934768 381.15905727 107.49138942 381.16571862 109.03342551 C381.18012768 113.24998449 381.17594275 117.46634725 381.1685518 121.68291676 C381.16381111 126.23860626 381.176338 130.79425385 381.18656921 135.34992981 C381.20374538 144.26711897 381.20459961 153.18423763 381.19935631 162.10143904 C381.19531088 169.35176402 381.1967626 176.6020682 381.20210457 183.8523922 C381.20285299 184.885269 381.20360141 185.91814581 381.20437251 186.98232191 C381.20590403 189.08079007 381.20744238 191.17925823 381.20898748 193.27772637 C381.22270846 212.94715309 381.21727784 232.61654002 381.20580227 252.28596582 C381.19587215 270.26646393 381.20880746 288.2468591 381.23273646 306.22734133 C381.25714061 324.70456416 381.26673198 343.18173907 381.26008373 361.65897769 C381.25659421 372.02656115 381.25880591 382.39406548 381.27633476 392.76163673 C381.29107325 401.5880923 381.29167072 410.41441301 381.27426385 419.24086598 C381.26576473 423.74074755 381.26357759 428.24038839 381.27891541 432.74025726 C381.29280519 436.866522 381.28794468 440.99234073 381.26867617 445.11857995 C381.26492892 446.60436933 381.26780105 448.09019481 381.27828782 449.57595191 C381.3998527 468.13133971 375.50779212 483.20479614 362.546875 496.4296875 C352.51377876 506.02656216 339.55277694 511.20820499 325.68596649 511.22797108 C324.98172857 511.23032331 324.27749065 511.23267554 323.55191219 511.23509905 C321.18624462 511.24176915 318.82063223 511.24133143 316.45495605 511.24092102 C314.74398798 511.24422089 313.03302069 511.24794672 311.32205439 511.2520625 C306.61539323 511.2620767 301.90874483 511.26579836 297.20207453 511.26845181 C292.12755956 511.27235659 287.05305467 511.28193483 281.97854614 511.29066467 C269.72091457 511.31042439 257.46328217 511.32049477 245.20563865 511.32939246 C239.43236471 511.33377626 233.65909169 511.33914284 227.88581848 511.34438133 C208.6924229 511.36139329 189.49902788 511.37588721 170.30562592 511.38313007 C165.32516987 511.38503995 160.34471384 511.38696028 155.36425781 511.38891602 C154.12639961 511.38939976 152.88854141 511.3898835 151.61317235 511.3903819 C131.56307893 511.39868125 111.51304519 511.42401674 91.46297783 511.45649669 C70.87505963 511.48957584 50.28717176 511.50757962 29.69922686 511.51077431 C18.14107595 511.51293864 6.58301208 511.52167597 -4.97511292 511.54723549 C-14.81909174 511.56895415 -24.66296241 511.57698713 -34.50696248 511.56726871 C-39.5273029 511.5627274 -44.5474202 511.56460054 -49.56772995 511.58403015 C-54.16972278 511.60168654 -58.77133013 511.600644 -63.3733272 511.58513286 C-65.03221838 511.58276055 -66.69113642 511.58706066 -68.34998661 511.59896151 C-87.42416037 511.72725254 -102.86815242 506.31139388 -116.57421875 492.87890625 C-125.93222158 483.09553965 -131.35096198 470.24890078 -131.37250233 456.67392731 C-131.37696017 455.3691992 -131.38141801 454.0644711 -131.38601094 452.72020578 C-131.38592165 451.27396042 -131.38573181 449.82771506 -131.38545227 448.38146973 C-131.38875261 446.84374318 -131.39247854 445.30601749 -131.39659375 443.7682929 C-131.40660262 439.54049771 -131.41032875 435.31271671 -131.41298306 431.08491135 C-131.41688944 426.525738 -131.42646757 421.96657585 -131.43519592 417.40740967 C-131.45495131 406.39561816 -131.46502555 395.38382575 -131.47392371 384.37202096 C-131.47830829 379.18451137 -131.48367467 373.9970028 -131.48891258 368.80949402 C-131.50592423 351.56167055 -131.52041786 334.31384772 -131.52766132 317.06601715 C-131.52957117 312.59088643 -131.53149151 308.11575571 -131.53344727 303.640625 C-131.53393101 302.52837262 -131.53441475 301.41612024 -131.53491315 300.27016324 C-131.54321142 282.25702241 -131.56854521 264.24394803 -131.60102794 246.23083621 C-131.63411567 227.7311808 -131.65211165 209.23155914 -131.65530556 190.73187399 C-131.65746911 180.34743726 -131.66619504 169.96309743 -131.69176674 159.57868958 C-131.71349715 150.73382746 -131.72151264 141.88908578 -131.71179996 133.0442 C-131.70726201 128.53421714 -131.70911202 124.02448264 -131.7285614 119.514534 C-131.74624217 115.37883355 -131.74515584 111.24356176 -131.72966411 107.10785645 C-131.72729546 105.61854638 -131.73157274 104.12920624 -131.74349276 102.63994199 C-131.87265854 85.42391687 -127.06629789 71.03862512 -115.17578125 58.34375 C-96.62657553 40.83067157 -75.48504628 40.50654755 -51.23828125 40.84375 C-48.70964963 40.86385453 -46.1810025 40.88209827 -43.65234375 40.8984375 C-37.51397924 40.94209805 -31.37620455 41.00869394 -25.23828125 41.09375 C-25.2539917 40.21638184 -25.26970215 39.33901367 -25.28588867 38.43505859 C-25.33722501 35.15863048 -25.37473122 31.88263402 -25.40307617 28.60595703 C-25.4180995 27.19182563 -25.4385243 25.77774032 -25.46459961 24.36376953 C-25.50127079 22.32312603 -25.51807161 20.28310208 -25.53125 18.2421875 C-25.54696045 17.01677246 -25.5626709 15.79135742 -25.57885742 14.52880859 C-24.94819346 8.16791828 -21.96199936 4.22700334 -17.23828125 0.09375 C-11.86157273 -1.69848617 -5.32998028 -2.15803739 0 0 Z " fill="#EBEEF0" transform="translate(131.23828125,0.90625)"/>
<path d="M0 0 C4.39348756 2.93526364 5.18601578 4.94234407 7.76171875 10.09375 C7.76171875 20.32375 7.76171875 30.55375 7.76171875 41.09375 C84.98171875 41.09375 162.20171875 41.09375 241.76171875 41.09375 C241.76171875 30.86375 241.76171875 20.63375 241.76171875 10.09375 C246.77541738 1.3197774 246.77541738 1.3197774 251.76171875 -0.90625 C257.38895636 -1.65603303 262.10238932 -1.70628383 267.26171875 0.78125 C270.69236777 3.95460035 273.27093028 6.62138458 274.76171875 11.09375 C274.84550503 13.3776017 274.8690179 15.663851 274.859375 17.94921875 C274.85725258 18.94167351 274.85725258 18.94167351 274.85508728 19.95417786 C274.84949871 22.06324828 274.8369484 24.17221177 274.82421875 26.28125 C274.81920227 27.71288909 274.81463962 29.14452985 274.81054688 30.57617188 C274.79953305 34.08206588 274.7822763 37.5878975 274.76171875 41.09375 C275.72319824 41.08042633 275.72319824 41.08042633 276.70410156 41.0668335 C283.45400962 40.97744556 290.20374612 40.91764166 296.95410156 40.87402344 C299.46393681 40.85406835 301.97372655 40.82689447 304.48339844 40.79199219 C327.18824768 40.48443646 346.27526683 41.45704928 363.546875 57.8828125 C364.27777344 58.61242188 365.00867188 59.34203125 365.76171875 60.09375 C366.33792969 60.65835938 366.91414063 61.22296875 367.5078125 61.8046875 C378.66198986 73.68316209 381.21851303 88.79663964 381.1493988 104.40730286 C381.15357706 105.94934768 381.15905727 107.49138942 381.16571862 109.03342551 C381.18012768 113.24998449 381.17594275 117.46634725 381.1685518 121.68291676 C381.16381111 126.23860626 381.176338 130.79425385 381.18656921 135.34992981 C381.20374538 144.26711897 381.20459961 153.18423763 381.19935631 162.10143904 C381.19531088 169.35176402 381.1967626 176.6020682 381.20210457 183.8523922 C381.20285299 184.885269 381.20360141 185.91814581 381.20437251 186.98232191 C381.20590403 189.08079007 381.20744238 191.17925823 381.20898748 193.27772637 C381.22270846 212.94715309 381.21727784 232.61654002 381.20580227 252.28596582 C381.19587215 270.26646393 381.20880746 288.2468591 381.23273646 306.22734133 C381.25714061 324.70456416 381.26673198 343.18173907 381.26008373 361.65897769 C381.25659421 372.02656115 381.25880591 382.39406548 381.27633476 392.76163673 C381.29107325 401.5880923 381.29167072 410.41441301 381.27426385 419.24086598 C381.26576473 423.74074755 381.26357759 428.24038839 381.27891541 432.74025726 C381.29280519 436.866522 381.28794468 440.99234073 381.26867617 445.11857995 C381.26492892 446.60436933 381.26780105 448.09019481 381.27828782 449.57595191 C381.3998527 468.13133971 375.50779212 483.20479614 362.546875 496.4296875 C352.51377876 506.02656216 339.55277694 511.20820499 325.68596649 511.22797108 C324.98172857 511.23032331 324.27749065 511.23267554 323.55191219 511.23509905 C321.18624462 511.24176915 318.82063223 511.24133143 316.45495605 511.24092102 C314.74398798 511.24422089 313.03302069 511.24794672 311.32205439 511.2520625 C306.61539323 511.2620767 301.90874483 511.26579836 297.20207453 511.26845181 C292.12755956 511.27235659 287.05305467 511.28193483 281.97854614 511.29066467 C269.72091457 511.31042439 257.46328217 511.32049477 245.20563865 511.32939246 C239.43236471 511.33377626 233.65909169 511.33914284 227.88581848 511.34438133 C208.6924229 511.36139329 189.49902788 511.37588721 170.30562592 511.38313007 C165.32516987 511.38503995 160.34471384 511.38696028 155.36425781 511.38891602 C154.12639961 511.38939976 152.88854141 511.3898835 151.61317235 511.3903819 C131.56307893 511.39868125 111.51304519 511.42401674 91.46297783 511.45649669 C70.87505963 511.48957584 50.28717176 511.50757962 29.69922686 511.51077431 C18.14107595 511.51293864 6.58301208 511.52167597 -4.97511292 511.54723549 C-14.81909174 511.56895415 -24.66296241 511.57698713 -34.50696248 511.56726871 C-39.5273029 511.5627274 -44.5474202 511.56460054 -49.56772995 511.58403015 C-54.16972278 511.60168654 -58.77133013 511.600644 -63.3733272 511.58513286 C-65.03221838 511.58276055 -66.69113642 511.58706066 -68.34998661 511.59896151 C-87.42416037 511.72725254 -102.86815242 506.31139388 -116.57421875 492.87890625 C-125.93222158 483.09553965 -131.35096198 470.24890078 -131.37250233 456.67392731 C-131.37696017 455.3691992 -131.38141801 454.0644711 -131.38601094 452.72020578 C-131.38592165 451.27396042 -131.38573181 449.82771506 -131.38545227 448.38146973 C-131.38875261 446.84374318 -131.39247854 445.30601749 -131.39659375 443.7682929 C-131.40660262 439.54049771 -131.41032875 435.31271671 -131.41298306 431.08491135 C-131.41688944 426.525738 -131.42646757 421.96657585 -131.43519592 417.40740967 C-131.45495131 406.39561816 -131.46502555 395.38382575 -131.47392371 384.37202096 C-131.47830829 379.18451137 -131.48367467 373.9970028 -131.48891258 368.80949402 C-131.50592423 351.56167055 -131.52041786 334.31384772 -131.52766132 317.06601715 C-131.52957117 312.59088643 -131.53149151 308.11575571 -131.53344727 303.640625 C-131.53393101 302.52837262 -131.53441475 301.41612024 -131.53491315 300.27016324 C-131.54321142 282.25702241 -131.56854521 264.24394803 -131.60102794 246.23083621 C-131.63411567 227.7311808 -131.65211165 209.23155914 -131.65530556 190.73187399 C-131.65746911 180.34743726 -131.66619504 169.96309743 -131.69176674 159.57868958 C-131.71349715 150.73382746 -131.72151264 141.88908578 -131.71179996 133.0442 C-131.70726201 128.53421714 -131.70911202 124.02448264 -131.7285614 119.514534 C-131.74624217 115.37883355 -131.74515584 111.24356176 -131.72966411 107.10785645 C-131.72729546 105.61854638 -131.73157274 104.12920624 -131.74349276 102.63994199 C-131.87265854 85.42391687 -127.06629789 71.03862512 -115.17578125 58.34375 C-96.62657553 40.83067157 -75.48504628 40.50654755 -51.23828125 40.84375 C-48.70964963 40.86385453 -46.1810025 40.88209827 -43.65234375 40.8984375 C-37.51397924 40.94209805 -31.37620455 41.00869394 -25.23828125 41.09375 C-25.2539917 40.21638184 -25.26970215 39.33901367 -25.28588867 38.43505859 C-25.33722501 35.15863048 -25.37473122 31.88263402 -25.40307617 28.60595703 C-25.4180995 27.19182563 -25.4385243 25.77774032 -25.46459961 24.36376953 C-25.50127079 22.32312603 -25.51807161 20.28310208 -25.53125 18.2421875 C-25.54696045 17.01677246 -25.5626709 15.79135742 -25.57885742 14.52880859 C-24.94819346 8.16791828 -21.96199936 4.22700334 -17.23828125 0.09375 C-11.86157273 -1.69848617 -5.32998028 -2.15803739 0 0 Z M-99.23828125 202.09375 C-99.36203125 244.08625 -99.48578125 286.07875 -99.61328125 329.34375 C-99.66790527 342.59950195 -99.7225293 355.85525391 -99.77880859 369.51269531 C-99.79887608 381.40243063 -99.79887608 381.40243063 -99.8109436 393.29217529 C-99.81653011 398.58514607 -99.83850131 403.87774711 -99.87173462 409.17059326 C-99.91409939 415.92778733 -99.92521369 422.68436444 -99.91671491 429.44171667 C-99.91849134 431.91798889 -99.93034246 434.39427992 -99.95357203 436.87044382 C-100.56832879 454.53252236 -100.56832879 454.53252236 -93.23828125 470.09375 C-86.83528304 476.25503246 -81.3004081 479.33833365 -72.30029202 479.35660553 C-71.61094986 479.3607108 -70.92160771 479.36481606 -70.2113764 479.36904573 C-67.89633382 479.3803747 -65.58152964 479.37747271 -63.26646423 479.37463379 C-61.59190474 479.37980173 -59.91734771 479.38582823 -58.2427941 479.39264059 C-53.63680522 479.40878 -49.03087869 479.4123597 -44.42486489 479.41383553 C-39.45874301 479.4175368 -34.49265348 479.43263168 -29.52655029 479.44610596 C-18.6648213 479.47327423 -7.80310707 479.48532257 3.05865026 479.49412727 C9.84140985 479.49965242 16.62416374 479.50812723 23.40691948 479.51713562 C42.18769631 479.54152224 60.96846858 479.56211992 79.7492609 479.5688858 C80.95138433 479.56932494 82.15350776 479.56976407 83.39205917 479.57021651 C84.59705699 479.57065306 85.80205481 479.57108962 87.04356772 479.5715394 C89.48534398 479.57242633 91.92712023 479.57331946 94.36889648 479.57421875 C96.18570395 479.57488304 96.18570395 479.57488304 98.0392146 479.57556075 C117.65999969 479.58345481 137.28063612 479.61835642 156.9013638 479.66493779 C177.04744704 479.71238012 197.19345573 479.73729023 217.33959574 479.73962164 C228.65016075 479.74145442 239.96053213 479.75294056 251.27104378 479.78926086 C260.90355809 479.82008374 270.53581897 479.83029172 280.16837323 479.81378466 C285.0813571 479.80597851 289.99383076 479.80779576 294.90675163 479.83589935 C299.40955677 479.86142084 303.91146951 479.8589463 308.41427379 479.83471793 C310.038158 479.83081121 311.66210588 479.83692785 313.28590072 479.85440665 C323.20364787 479.95435434 331.36152532 478.99182557 339.76171875 473.09375 C346.16919106 466.5982438 349.08936589 459.5288197 349.14896107 450.48901272 C349.13585408 449.02589452 349.13585408 449.02589452 349.1224823 447.53321838 C349.12633438 445.95995285 349.12633438 445.95995285 349.13026428 444.35490417 C349.13522225 440.83613706 349.11867197 437.31780011 349.10229492 433.79907227 C349.10137579 431.2350691 349.10177662 428.67106517 349.10339069 426.10706234 C349.10399926 419.93744755 349.09115501 413.76799124 349.07188671 407.59841069 C349.05025976 400.45944313 349.04790099 393.32052127 349.04553223 386.18151855 C349.02979068 367.33974159 348.98790722 348.49799382 348.94921875 329.65625 C348.88734375 287.560625 348.82546875 245.465 348.76171875 202.09375 C200.92171875 202.09375 53.08171875 202.09375 -99.23828125 202.09375 Z " fill="#000000" transform="translate(131.23828125,0.90625)"/>
<path d="M0 0 C1.78090027 0.00636726 1.78090027 0.00636726 3.59777832 0.01286316 C7.3675054 0.02957536 11.13668612 0.06721494 14.90625 0.10546875 C17.47134641 0.12052517 20.03645126 0.1342119 22.6015625 0.14648438 C28.86997619 0.17945452 35.13807405 0.22957979 41.40625 0.29296875 C41.4155957 1.53385254 41.42494141 2.77473633 41.43457031 4.05322266 C41.47454283 8.67174741 41.54032207 13.28961113 41.61376953 17.90771484 C41.64193703 19.903722 41.66317252 21.89983981 41.67724609 23.89599609 C41.69873403 26.77108239 41.74541426 29.64484404 41.796875 32.51953125 C41.79810364 33.40726227 41.79933228 34.29499329 41.80059814 35.20962524 C41.92985858 40.71877351 42.73922417 43.92397901 46.40625 48.29296875 C50.54128025 51.94718153 53.78352544 52.95267744 59.1640625 52.671875 C63.09531283 52.00753479 65.20176682 50.74345589 68.40625 48.29296875 C75.76477735 36.70151961 75.76477735 36.70151961 73.40625 0.29296875 C150.62625 0.29296875 227.84625 0.29296875 307.40625 0.29296875 C307.73625 13.82296875 308.06625 27.35296875 308.40625 41.29296875 C312.51183019 48.84874279 312.51183019 48.84874279 319.40625 52.29296875 C324.70202171 53.1943767 328.92026868 52.24963826 333.40625 49.29296875 C336.74426215 45.59409042 338.50771952 43.16570893 338.61157227 38.21044922 C338.63151749 37.3697287 338.65146271 36.52900818 338.67201233 35.66281128 C338.69708107 34.30024704 338.69708107 34.30024704 338.72265625 32.91015625 C338.7538279 31.51605026 338.7538279 31.51605026 338.78562927 30.09378052 C338.85112646 27.11858665 338.91001052 24.14330298 338.96875 21.16796875 C339.01193506 19.15363647 339.05554934 17.13931334 339.09960938 15.125 C339.20680803 10.18108212 339.30807501 5.23707372 339.40625 0.29296875 C346.91345548 0.19105628 354.42048073 0.12128866 361.92822266 0.07324219 C364.47907173 0.05320003 367.02987527 0.02595882 369.58056641 -0.00878906 C373.2595548 -0.05763155 376.93793259 -0.08007506 380.6171875 -0.09765625 C381.74675873 -0.11830139 382.87632996 -0.13894653 384.04013062 -0.16021729 C392.30757628 -0.16252928 399.45817106 1.10979333 406.02734375 6.40625 C406.92646484 7.49486328 406.92646484 7.49486328 407.84375 8.60546875 C408.46121094 9.32347656 409.07867187 10.04148437 409.71484375 10.78125 C425.66004693 34.4596926 414.40625 67.74619751 414.40625 96.29296875 C266.56625 96.29296875 118.72625 96.29296875 -33.59375 96.29296875 C-33.59375 15.45690318 -33.59375 15.45690318 -24.78125 6.35546875 C-17.40876518 -0.04240187 -9.27016909 -0.12592223 0 0 Z " fill="#2095F1" transform="translate(65.59375,74.70703125)"/>
<path d="M0 0 C1.89271637 -0.01925285 1.89271637 -0.01925285 3.82366943 -0.03889465 C5.20828865 -0.04706316 6.59291231 -0.05450668 7.97753906 -0.0612793 C8.6743 -0.06535482 9.37106094 -0.06943035 10.08893585 -0.07362938 C13.7786886 -0.09449328 17.46840414 -0.10879209 21.15820312 -0.11816406 C24.96250317 -0.12921364 28.76621588 -0.16359487 32.57030869 -0.20333576 C35.50092628 -0.22953416 38.43140482 -0.23785883 41.36212921 -0.24144554 C42.7639181 -0.2463053 44.16570103 -0.25790202 45.56737518 -0.27648354 C47.53435585 -0.30093274 49.50162257 -0.2974845 51.46875 -0.29296875 C52.58634705 -0.29883499 53.70394409 -0.30470123 54.85540771 -0.31074524 C59.87181114 0.46902744 62.96546417 3.03819937 66.30566406 6.73950195 C68.93754023 10.54110087 69.13090214 13.47655874 69.18603516 17.99023438 C69.20209808 19.18545212 69.21816101 20.38066986 69.23471069 21.61210632 C69.27921755 27.08336148 69.32066978 32.55448561 69.34326172 38.02587891 C69.35657576 40.90966694 69.3843826 43.7927431 69.42529297 46.67626953 C69.47482601 50.16818105 69.4994078 53.65944939 69.5064888 57.15169716 C69.51639753 59.11700367 69.55059274 61.08213985 69.58529663 63.04716492 C69.56799349 70.39925574 68.96211835 75.54810564 63.99316406 81.17700195 C59.7665636 85.14744481 55.60701847 85.30204445 49.97460938 85.38574219 C48.75944641 85.40503281 47.54428345 85.42432343 46.29229736 85.44419861 C40.74209023 85.50205859 35.19202739 85.55150117 29.64160156 85.58203125 C26.71602378 85.59982555 23.79141335 85.63462065 20.86621094 85.68457031 C17.32124347 85.74501525 13.77717052 85.77553863 10.23171234 85.78520393 C8.23752383 85.79783453 6.24359021 85.83982449 4.24981689 85.88243103 C-2.49446021 85.86719038 -7.4155273 85.60069962 -12.5272522 80.90283203 C-18.2028731 74.28262055 -17.44550145 66.90938051 -17.40527344 58.5793457 C-17.40814362 57.27171768 -17.41101379 55.96408966 -17.41397095 54.61683655 C-17.41837564 51.85903195 -17.41202275 49.10152034 -17.39794922 46.34375 C-17.38084104 42.82099359 -17.39071983 39.2989222 -17.40866661 35.77619076 C-17.42215257 32.39802174 -17.41269382 29.02003414 -17.40527344 25.6418457 C-17.41134613 24.38234604 -17.41741882 23.12284637 -17.42367554 21.82518005 C-17.41421906 20.64698196 -17.40476257 19.46878387 -17.39501953 18.25488281 C-17.39263275 17.22342636 -17.39024597 16.19196991 -17.38778687 15.1292572 C-16.8524914 10.98087817 -15.3362777 7.60116221 -12.47167969 4.5324707 C-7.85330041 1.0007689 -5.784147 0.0510944 0 0 Z " fill="#000102" transform="translate(230.0068359375,234.822998046875)"/>
<path d="M0 0 C1.24179016 -0.00960754 2.48358032 -0.01921509 3.76300049 -0.02911377 C5.12552711 -0.03396262 6.48805586 -0.03824123 7.85058594 -0.04199219 C9.24582928 -0.04774502 10.64107261 -0.05350274 12.03631592 -0.05926514 C14.96513233 -0.06977735 17.89392128 -0.07561801 20.82275391 -0.07910156 C24.56641499 -0.0845752 28.30971033 -0.10857757 32.05325699 -0.13707352 C34.93755125 -0.15574959 37.82175848 -0.16090821 40.70610809 -0.16243744 C42.08554831 -0.16545524 43.46498732 -0.17345427 44.84436798 -0.18662262 C46.78028605 -0.20377887 48.7163552 -0.19994427 50.65234375 -0.1953125 C51.7521759 -0.19895813 52.85200806 -0.20260376 53.98516846 -0.20635986 C58.21241717 0.29479721 61.57391049 1.78288253 64.72949219 4.66113281 C68.3156869 9.26681432 69.20755908 12.22120088 69.27783203 17.97436523 C69.29389496 19.16958298 69.30995789 20.36480072 69.32650757 21.59623718 C69.37101442 27.06749234 69.41246666 32.53861647 69.43505859 38.01000977 C69.44837263 40.8937978 69.47617948 43.77687396 69.51708984 46.66040039 C69.56662289 50.15231191 69.59120468 53.64358025 69.59828568 57.13582802 C69.60819441 59.10113453 69.64238961 61.06627071 69.67709351 63.03129578 C69.66002009 70.28577774 69.29769558 75.78599237 64.08496094 81.16113281 C57.81581636 86.42571366 50.98085637 85.74163415 43.08496094 85.69238281 C41.72167688 85.69508204 40.35839471 85.69896804 38.99511719 85.70397949 C36.14727324 85.70985448 33.29993345 85.70137739 30.45214844 85.68261719 C26.81721866 85.65982766 23.1834705 85.67296169 19.54858398 85.69690704 C16.73623895 85.71142002 13.92417015 85.70673419 11.11181641 85.69639587 C9.12499212 85.69246207 7.13815672 85.70452617 5.15136719 85.71691895 C-6.63521458 85.59492159 -6.63521458 85.59492159 -11.91503906 81.16113281 C-18.00857707 74.84216282 -17.63103621 67.63154096 -17.54394531 59.28222656 C-17.54477566 57.94279284 -17.5472413 56.60335924 -17.55125427 55.26393127 C-17.55409922 52.46901449 -17.53953972 49.67490488 -17.51196289 46.88012695 C-17.47784718 43.31355904 -17.48392069 39.74842951 -17.50262547 36.18179226 C-17.51323702 33.42003063 -17.50422101 30.65859878 -17.48924065 27.89686775 C-17.48160402 25.94773304 -17.48888144 23.9985581 -17.49647522 22.04942322 C-17.40601903 15.2241371 -17.10940814 10.65725241 -12.91503906 5.16113281 C-8.42423831 1.09802737 -5.98999066 0.03729511 0 0 Z " fill="#010202" transform="translate(229.9150390625,362.8388671875)"/>
<path d="M0 0 C1.4095537 -0.00269813 2.81910558 -0.00658322 4.22865295 -0.01159668 C7.1766235 -0.01747872 10.1241077 -0.00897278 13.07202148 0.00976562 C16.83588185 0.03253439 20.59859984 0.01943855 24.36241817 -0.00452423 C27.27169776 -0.01903586 30.18071025 -0.01435158 33.08999825 -0.00401306 C34.47696635 -0.00135943 35.86395933 -0.00456719 37.25089836 -0.01393127 C51.19401939 -0.08741288 51.19401939 -0.08741288 56.66015625 4.53125 C61.95242943 10.82469143 61.24555266 17.89580096 61.19140625 25.78515625 C61.19410506 27.17325614 61.19799071 28.56135417 61.20300293 29.94944763 C61.2088779 32.84856288 61.20039948 35.74718287 61.18164062 38.64624023 C61.15882978 42.35076254 61.17199872 46.05412683 61.19593048 49.75860691 C61.21042518 52.62152237 61.20576629 55.48416585 61.19541931 58.34708977 C61.19276322 59.71255571 61.19598228 61.07804687 61.20533752 62.44348335 C61.27589444 75.63152333 61.27589444 75.63152333 56.66015625 80.53125 C52.1154069 84.53495776 49.77063192 85.65415687 43.76098633 85.70825195 C42.52242386 85.72108719 41.28386139 85.73392242 40.00776672 85.74714661 C38.64841105 85.75531609 37.28905085 85.76275942 35.9296875 85.76953125 C35.24520727 85.77360678 34.56072704 85.7776823 33.85550499 85.78188133 C30.22943804 85.8027479 26.60340894 85.81704447 22.97729492 85.82641602 C19.24258996 85.83745465 15.50848509 85.8718223 11.77399158 85.91158772 C8.89394574 85.93781864 6.01404111 85.94611374 3.13388634 85.94969749 C1.75804297 85.95455037 0.38220535 85.9661273 -0.99352074 85.98473549 C-14.86660251 86.16065105 -14.86660251 86.16065105 -20.33984375 81.53125 C-25.68486736 75.20547318 -24.92468435 67.99604152 -24.87109375 60.05859375 C-24.87379244 58.64807366 -24.87767799 57.23755539 -24.88269043 55.82704163 C-24.88856598 52.8808509 -24.88008502 49.93514746 -24.86132812 46.98901367 C-24.83851766 43.22396363 -24.85168571 39.46005301 -24.87561798 35.69504452 C-24.89011133 32.7858073 -24.88545438 29.87683777 -24.87510681 26.96759224 C-24.87245033 25.57979762 -24.87567115 24.19197821 -24.88502502 22.80421257 C-24.94897769 10.65321773 -24.94897769 10.65321773 -22.68164062 6.88500977 C-15.52477246 -0.30841871 -9.96599424 -0.06717319 0 0 Z " fill="#000001" transform="translate(387.33984375,234.46875)"/>
<path d="M0 0 C1.41194737 -0.00015515 2.82389517 -0.0016468 4.23583984 -0.00440979 C7.1880182 -0.00579069 10.13970889 0.00671138 13.09179688 0.02954102 C16.8645789 0.05792539 20.63655138 0.05518451 24.40939331 0.0424509 C27.32290489 0.03547601 30.23623132 0.0433035 33.14971924 0.05570793 C34.54029631 0.0602049 35.93089338 0.06057465 37.32147217 0.05664253 C39.26903582 0.05371284 41.21659509 0.07245969 43.1640625 0.09204102 C44.82236084 0.10014549 44.82236084 0.10014549 46.51416016 0.1084137 C51.41052879 0.71861048 54.64548988 2.41069065 57.9375 6.05859375 C60.57027081 9.86148492 60.75789982 11.8983538 60.78613281 16.51879883 C60.79574036 17.78383743 60.8053479 19.04887604 60.81524658 20.35224915 C60.82009487 21.74003927 60.82437362 23.12783148 60.828125 24.515625 C60.83387714 25.93568423 60.83963486 27.35574343 60.84539795 28.77580261 C60.85590925 31.75589358 60.86175077 34.73595756 60.86523438 37.71606445 C60.87071334 41.52932298 60.8947276 45.3422234 60.92320633 49.15536976 C60.94185967 52.0902357 60.94703978 55.02501594 60.94857025 57.95993614 C60.95159226 59.36532228 60.95960559 60.77070706 60.97275543 62.17603493 C60.98986702 64.14568611 60.98608348 66.11548503 60.98144531 68.08520508 C60.98691376 69.76493156 60.98691376 69.76493156 60.99249268 71.47859192 C60.41868655 76.19014438 58.24370104 79.34632413 54.5625 82.24609375 C50.51361182 85.3473698 48.75078307 85.62784616 43.70996094 85.6730957 C41.8472757 85.69234856 41.8472757 85.69234856 39.94696045 85.71199036 C38.58443602 85.72015893 37.22190708 85.72760244 35.859375 85.734375 C35.17364662 85.73845053 34.48791824 85.74252605 33.78141022 85.74672508 C30.15001222 85.76758858 26.51865201 85.7818875 22.88720703 85.79125977 C19.14343682 85.80230872 15.40026355 85.83668926 11.65670395 85.87643147 C8.77240934 85.90263255 5.88825599 85.91095477 3.00385284 85.91454124 C1.624392 85.91940039 0.24493718 85.93099537 -1.13440704 85.94957924 C-14.5070756 86.11851003 -14.5070756 86.11851003 -19.375 81.49609375 C-23.37870776 76.9513444 -24.49790687 74.60656942 -24.55200195 68.59692383 C-24.56483719 67.35836136 -24.57767242 66.11979889 -24.59089661 64.84370422 C-24.59906609 63.48434855 -24.60650942 62.12498835 -24.61328125 60.765625 C-24.61735678 60.08114477 -24.6214323 59.39666454 -24.62563133 58.69144249 C-24.6464979 55.06537554 -24.66079447 51.43934644 -24.67016602 47.81323242 C-24.68120465 44.07852746 -24.7155723 40.34442259 -24.75533772 36.60992908 C-24.78156864 33.72988324 -24.78986374 30.84997861 -24.79344749 27.96982384 C-24.79830037 26.59398047 -24.8098773 25.21814285 -24.82848549 23.84241676 C-25.00258197 10.1127919 -25.00258197 10.1127919 -20.375 4.49609375 C-14.83706591 -1.17120445 -7.38127387 -0.06600035 0 0 Z " fill="#000001" transform="translate(88.375,362.50390625)"/>
<path d="M0 0 C1.41194737 -0.00015515 2.82389517 -0.0016468 4.23583984 -0.00440979 C7.1880182 -0.00579069 10.13970889 0.00671138 13.09179688 0.02954102 C16.8645789 0.05792539 20.63655138 0.05518451 24.40939331 0.0424509 C27.32290489 0.03547601 30.23623132 0.0433035 33.14971924 0.05570793 C34.54029631 0.0602049 35.93089338 0.06057465 37.32147217 0.05664253 C39.26903582 0.05371284 41.21659509 0.07245969 43.1640625 0.09204102 C44.82236084 0.10014549 44.82236084 0.10014549 46.51416016 0.1084137 C51.41052879 0.71861048 54.64548988 2.41069065 57.9375 6.05859375 C60.57027081 9.86148492 60.75789982 11.8983538 60.78613281 16.51879883 C60.79574036 17.78383743 60.8053479 19.04887604 60.81524658 20.35224915 C60.82009487 21.74003927 60.82437362 23.12783148 60.828125 24.515625 C60.83387714 25.93568423 60.83963486 27.35574343 60.84539795 28.77580261 C60.85590925 31.75589358 60.86175077 34.73595756 60.86523438 37.71606445 C60.87071334 41.52932298 60.8947276 45.3422234 60.92320633 49.15536976 C60.94185967 52.0902357 60.94703978 55.02501594 60.94857025 57.95993614 C60.95159226 59.36532228 60.95960559 60.77070706 60.97275543 62.17603493 C60.98986702 64.14568611 60.98608348 66.11548503 60.98144531 68.08520508 C60.98691376 69.76493156 60.98691376 69.76493156 60.99249268 71.47859192 C60.41868655 76.19014438 58.24370104 79.34632413 54.5625 82.24609375 C50.51361182 85.3473698 48.75078307 85.62784616 43.70996094 85.6730957 C41.8472757 85.69234856 41.8472757 85.69234856 39.94696045 85.71199036 C38.58443602 85.72015893 37.22190708 85.72760244 35.859375 85.734375 C35.17364662 85.73845053 34.48791824 85.74252605 33.78141022 85.74672508 C30.15001222 85.76758858 26.51865201 85.7818875 22.88720703 85.79125977 C19.14343682 85.80230872 15.40026355 85.83668926 11.65670395 85.87643147 C8.77240934 85.90263255 5.88825599 85.91095477 3.00385284 85.91454124 C1.624392 85.91940039 0.24493718 85.93099537 -1.13440704 85.94957924 C-14.5070756 86.11851003 -14.5070756 86.11851003 -19.375 81.49609375 C-23.37870776 76.9513444 -24.49790687 74.60656942 -24.55200195 68.59692383 C-24.56483719 67.35836136 -24.57767242 66.11979889 -24.59089661 64.84370422 C-24.59906609 63.48434855 -24.60650942 62.12498835 -24.61328125 60.765625 C-24.61735678 60.08114477 -24.6214323 59.39666454 -24.62563133 58.69144249 C-24.6464979 55.06537554 -24.66079447 51.43934644 -24.67016602 47.81323242 C-24.68120465 44.07852746 -24.7155723 40.34442259 -24.75533772 36.60992908 C-24.78156864 33.72988324 -24.78986374 30.84997861 -24.79344749 27.96982384 C-24.79830037 26.59398047 -24.8098773 25.21814285 -24.82848549 23.84241676 C-25.00258197 10.1127919 -25.00258197 10.1127919 -20.375 4.49609375 C-14.83706591 -1.17120445 -7.38127387 -0.06600035 0 0 Z " fill="#000001" transform="translate(88.375,234.50390625)"/>
<path d="M0 0 C7.26 0 14.52 0 22 0 C22 6.93 22 13.86 22 21 C14.74 21 7.48 21 0 21 C0 14.07 0 7.14 0 0 Z " fill="#8BC3F1" transform="translate(245,395)"/>
<path d="M0 0 C7.26 0 14.52 0 22 0 C22 6.93 22 13.86 22 21 C14.74 21 7.48 21 0 21 C0 14.07 0 7.14 0 0 Z " fill="#2091EB" transform="translate(245,267)"/>
<path d="M0 0 C6.93 0 13.86 0 21 0 C21 6.93 21 13.86 21 21 C14.07 21 7.14 21 0 21 C0 14.07 0 7.14 0 0 Z " fill="#2196F3" transform="translate(96,395)"/>
<path d="M0 0 C6.93 0 13.86 0 21 0 C21 6.93 21 13.86 21 21 C14.07 21 7.14 21 0 21 C0 14.07 0 7.14 0 0 Z " fill="#2196F3" transform="translate(395,267)"/>
<path d="M0 0 C6.93 0 13.86 0 21 0 C21 6.93 21 13.86 21 21 C14.07 21 7.14 21 0 21 C0 14.07 0 7.14 0 0 Z " fill="#2196F3" transform="translate(96,267)"/>
</svg>
